# xmcd
# 
# Track frame offsets:
#     150
#     12007
#     29605
#     51630
#     68647
# 
# Disc length: 1108
# 
# Revision: 2
# Processed by: cddbd v1.5.2PL0 Copyright (c) Steve Scherf et al.
# Submitted via: fre:ac v1.0.17
# 
DISCID=3e045205
DTITLE=THE HOOTERS - FIVE BY FIVE
DYEAR=2010
DGENRE=Rock
TTITLE0=Pissing In The Rhine
TTITLE1=Silver Lining
TTITLE2=One Of Us
TTITLE3=Time After Time
TTITLE4=Really Fine Wine
EXTD=
EXTT0=
EXTT1=
EXTT2=
EXTT3=
EXTT4=
PLAYORDER=
